<svg width="25" height="16" viewBox="0 0 25 16" fill="none" xmlns="http://www.w3.org/2000/svg">
<path d="M17.4996 0.93748C18.4718 0.93748 19.3745 0.868035 20.2078 0.729149C21.0412 0.520822 21.7356 0.277772 22.2911 0C23.055 0.555543 23.68 1.52774 24.1661 2.9166C24.7216 4.30545 24.9994 5.93736 24.9994 7.81232C24.9994 9.82616 24.4091 11.4928 23.2286 12.8122C22.1175 14.1316 20.8676 14.7913 19.4787 14.7913H6.87484C6.18041 14.7913 5.41654 14.8608 4.58322 14.9996C3.74991 15.1385 3.05548 15.3816 2.49994 15.7288C1.73607 14.8955 1.11108 13.8538 0.624985 12.6039C0.208328 11.3539 0 9.82616 0 8.02064C0 6.07625 0.624985 4.40962 1.87496 3.02077C3.19437 1.63191 4.68739 0.93748 6.35401 0.93748H17.4996Z" fill="#252525"/>
</svg>
