<svg width="748" height="297" viewBox="0 0 748 297" fill="none" xmlns="http://www.w3.org/2000/svg">
<path d="M2.52679 294.5H737.944C759.187 256.685 730.633 236.472 713.7 231.092C737.945 161.915 640.966 145.779 618.58 178.06C623.649 121.564 555.082 133.093 552.07 167.684C553.917 146.471 535.137 144.242 525.516 145.779C531.058 122.723 511.662 113.115 501.272 111.193C528.979 33.9454 429.692 13.1936 407.055 52.396C408.911 13.1936 351.186 9.73498 344.259 38.5605C287.688 -42.1436 199.946 30.4868 234.582 82.8672C158.087 73.133 146.839 145.779 175.702 174.6C108.74 145.779 74.1059 212.645 85.6509 242.62C17.3044 234.32 1.75714 273.748 2.52679 294.5Z" fill="#5E7352"/>
<path d="M234.582 82.8672C158.087 73.133 146.839 145.779 175.702 174.6C108.74 145.779 74.1059 212.645 85.6509 242.62C17.3044 234.32 1.75713 273.748 2.52679 294.5H737.944C759.187 256.685 730.633 236.472 713.7 231.092C737.945 161.915 640.966 145.779 618.58 178.06M234.582 82.8672C244.374 84.1133 255.485 86.5675 268.062 90.4402L234.582 82.8672ZM234.582 82.8672C199.946 30.4868 287.688 -42.1436 344.259 38.5605C351.186 9.73498 408.911 13.1936 407.055 52.396M407.055 52.396C408.252 58.1804 408.911 65.0472 408.911 73.1478L407.055 52.396ZM407.055 52.396C429.692 13.1936 528.979 33.9455 501.272 111.193C511.662 113.115 531.058 122.723 525.516 145.779C535.137 144.242 553.917 146.471 552.07 167.684C555.082 133.093 623.649 121.564 618.58 178.06M618.58 178.06C620.37 182.817 622.066 188.178 623.649 194.2L618.58 178.06Z" stroke="#252525" stroke-width="5"/>
</svg>
