<svg width="67" height="59" viewBox="0 0 67 59" fill="none" xmlns="http://www.w3.org/2000/svg">
<path d="M65.6883 1.06185C65.1581 0.576637 64.5083 0.241317 63.8056 0.0903363C63.1029 -0.060644 62.3726 -0.0218424 61.6899 0.202756L2.77832 19.6225C1.1728 20.1517 0.0840418 21.5849 0.00460986 23.2734C-0.0746913 24.962 0.874698 26.4911 2.42329 27.1688L14.2537 32.3448L49.0847 13.0138C49.4962 12.7856 49.9759 12.7124 50.4368 12.8076C50.8976 12.9028 51.3091 13.1599 51.5966 13.5325C51.8841 13.905 52.0286 14.3683 52.0038 14.8382C51.979 15.3082 51.7866 15.7536 51.4615 16.0939L29.747 38.7987L25.2936 54.8886L35.9823 46.8849L48.622 57.228C49.3582 57.8307 50.258 58.1451 51.1754 58.1451C51.6199 58.1446 52.0614 58.0714 52.4822 57.9282C53.8125 57.4771 54.7987 56.3914 55.1202 55.024L66.893 4.96972C67.0571 4.27004 67.0321 3.53928 66.8203 2.8525C66.6086 2.16573 66.2179 1.54768 65.6883 1.06185Z" fill="white"/>
<path d="M17.333 35.1346L21.4238 54.1082L26.084 37.2717C26.1706 36.9584 26.3335 36.6715 26.5581 36.4366L39.6479 22.75L17.333 35.1346Z" fill="white"/>
</svg>
