<svg width="261" height="36" viewBox="0 0 261 36" fill="none" xmlns="http://www.w3.org/2000/svg">
<path fill-rule="evenodd" clip-rule="evenodd" d="M31.7656 10.4182C32.7918 11.208 33.1663 14.3708 33.2599 17.5336V29.5781C33.2599 30.8403 33.0997 31.9618 32.9768 32.8213C32.9005 33.3552 32.8386 33.7881 32.8386 34.0907C32.8386 34.3241 32.9791 34.4641 33.2131 34.5108C33.8216 34.6508 35.8705 34.9775 39.4172 34.9775C42.2082 34.9775 43.4857 34.752 44.3729 34.5954L44.373 34.5954L44.3731 34.5954C44.5537 34.5635 44.7182 34.5345 44.8759 34.5108C45.2036 34.4641 45.949 34.3241 45.949 33.8143C45.949 33.428 45.883 32.867 45.8033 32.1889V32.1889L45.8033 32.1888V32.1888L45.8033 32.1887V32.1887L45.8033 32.1886V32.1886L45.8033 32.1885C45.6815 31.1524 45.5277 29.8429 45.5277 28.4652V14.1877C45.5277 11.7681 45.8517 9.76842 46.0858 8.93195C44.451 8.09188 41.3256 7.44209 37.5016 7.44209C33.9585 7.44209 31.7656 9.06837 31.7656 10.4182ZM47.1624 1.85963C45.4845 0.696462 42.359 0 38.7655 0C35.5932 0 32.9827 2.92945 32.9827 5.39579C35.406 5.76556 37.7861 5.99891 39.7449 5.99891C41.6101 5.99891 43.1044 5.81582 44.037 5.39579L47.1624 1.85963ZM19.4044 34.2306C20.6647 34.8337 23.4624 34.9737 25.6553 34.9737L25.6589 34.9809C28.6439 34.9809 30.5559 34.0044 30.5559 32.5612C27.9886 29.122 24.4923 25.0761 19.9193 20.4701C23.7469 19.0736 29.3425 13.6778 30.4623 6.74905C29.4829 6.5157 28.4567 6.42236 27.4773 6.42236C24.9135 6.42236 19.4548 7.72553 18.2414 10.4683C17.7565 11.5552 17.3455 12.6416 16.9479 13.693L16.9478 13.6933L16.9478 13.6933L16.9477 13.6934L16.9477 13.6934L16.9477 13.6934L16.9477 13.6934C16.1199 15.8821 15.3496 17.9186 14.0897 19.49V14.884C14.0897 9.72158 14.9287 5.67563 15.7208 3.16263C14.0393 1.81278 9.23591 0.696289 7.2771 0.696289C3.35949 0.696289 0 2.41949 0 4.27912C0.651735 4.69556 1.81838 7.34858 1.81477 10.3247V26.092C1.81477 27.8085 1.60074 30.0885 1.44963 31.6983C1.36719 32.5766 1.30347 33.2553 1.30347 33.5341C1.30347 34.0906 1.58073 34.3706 2.00201 34.5106C2.74737 34.744 5.12746 34.9773 8.11248 34.9773C11.0975 34.9773 12.8727 34.6973 13.618 34.5106C14.1293 34.3706 14.5506 34.1408 14.5506 33.7208C14.5506 33.4059 14.5027 32.8469 14.4376 32.0881L14.4376 32.088L14.4376 32.0878L14.4376 32.0877C14.3001 30.4846 14.0861 27.9899 14.0861 25.0222V22.1394C14.7805 25.4407 16.1225 28.3503 17.0082 30.2707L17.0084 30.2711L17.0089 30.2723C17.1333 30.542 17.2487 30.7921 17.352 31.0211C17.9569 32.4176 19.0767 34.0906 19.4044 34.2306ZM73.5625 34.974C71.3697 34.974 68.5719 34.834 67.3116 34.2309C66.984 34.0909 65.8641 32.4179 65.2592 31.0214C65.1558 30.7922 65.0403 30.5418 64.9158 30.2719L64.9158 30.2718L64.9154 30.271L64.9154 30.2709C64.0296 28.3505 62.6878 25.441 61.9933 22.1397V25.0225C61.9933 27.9902 62.2073 30.4849 62.3448 32.0881C62.4099 32.847 62.4578 33.4062 62.4578 33.7211C62.4578 34.1412 62.0365 34.3709 61.5252 34.5109C60.7799 34.6976 59.0047 34.9776 56.0197 34.9776C53.0347 34.9776 50.6546 34.7443 49.9092 34.5109C49.488 34.3709 49.2107 34.0909 49.2107 33.5344C49.2107 33.2556 49.2749 32.5769 49.3579 31.6986C49.5101 30.0888 49.7256 27.8088 49.7256 26.0923V10.325C49.7256 7.3489 48.559 4.69588 47.9072 4.27944C47.9072 2.41981 51.2667 0.700195 55.1843 0.700195C57.1431 0.700195 61.9501 1.81669 63.6281 3.16653C62.8359 5.67954 61.9969 9.72548 61.9969 14.8879V19.4939C63.2568 17.9225 64.0271 15.8859 64.855 13.6973L64.855 13.6972C65.2527 12.6457 65.6637 11.5592 66.1486 10.4722C67.362 7.72944 72.8208 6.42626 75.3845 6.42626C76.3639 6.42626 77.3901 6.5196 78.3695 6.75295C77.2497 13.6817 71.6541 19.0775 67.8265 20.474C72.3995 25.08 75.8958 29.1259 78.4631 32.5651C78.4631 34.0083 76.5511 34.9848 73.5661 34.9848L73.5625 34.974ZM79.6738 10.4182C80.7036 11.208 81.0745 14.3708 81.1681 17.5336V29.5781C81.1681 30.8402 81.0079 31.9616 80.885 32.8211L80.885 32.8212V32.8213C80.8087 33.3552 80.7468 33.7881 80.7468 34.0907C80.7468 34.3241 80.8873 34.4641 81.1213 34.5108C81.7262 34.6508 83.7787 34.9775 87.3254 34.9775C90.1164 34.9775 91.3939 34.752 92.2811 34.5954C92.4618 34.5635 92.6263 34.5345 92.7841 34.5108C93.1118 34.4641 93.8572 34.3241 93.8572 33.8143C93.8572 33.428 93.7912 32.867 93.7115 32.1889C93.5898 31.1527 93.4359 29.8431 93.4359 28.4652V14.1877C93.4359 11.7681 93.7599 9.76842 93.994 8.93195C92.3592 8.09188 89.2338 7.44209 85.4098 7.44209C81.8667 7.44209 79.6738 9.06837 79.6738 10.4182ZM95.0706 1.85963C93.3891 0.696462 90.2636 0 86.6737 0H86.6701C83.4978 0 80.8873 2.92945 80.8873 5.39579C83.3142 5.76556 85.6943 5.99891 87.6531 5.99891C89.5183 5.99891 91.0126 5.81582 91.9452 5.39579L95.0706 1.85963ZM127.536 34.974C125.343 34.974 122.545 34.834 121.285 34.2309C120.957 34.0909 119.837 32.4179 119.233 31.0214C119.129 30.792 119.013 30.5413 118.889 30.2711C118.003 28.3506 116.661 25.4411 115.967 22.1397V25.0225C115.967 27.9899 116.181 30.4844 116.318 32.0876L116.318 32.0879L116.318 32.0881L116.318 32.0883C116.383 32.8472 116.431 33.4062 116.431 33.7211C116.431 34.1412 116.01 34.3709 115.499 34.5109C114.753 34.6976 112.978 34.9776 109.993 34.9776C107.008 34.9776 104.628 34.7443 103.883 34.5109C103.461 34.3709 103.184 34.0909 103.184 33.5344C103.184 33.2557 103.248 32.577 103.33 31.6988L103.33 31.6986C103.481 30.0888 103.695 27.8088 103.695 26.0923V10.325C103.695 7.3489 102.529 4.69588 101.877 4.27944C101.877 2.41981 105.236 0.700195 109.154 0.700195C111.113 0.700195 115.916 1.81669 117.598 3.16653C116.806 5.67954 115.967 9.72548 115.967 14.8879V19.4939C117.227 17.9225 117.997 15.8859 118.825 13.6973C119.222 12.6458 119.633 11.5592 120.118 10.4722C121.332 7.72944 126.791 6.42626 129.354 6.42626C130.334 6.42626 131.36 6.5196 132.339 6.75295C131.219 13.6817 125.62 19.0775 121.796 20.474C126.369 25.08 129.866 29.1259 132.433 32.5651C132.433 34.0083 130.521 34.9848 127.536 34.9848V34.974ZM131.034 21.623C131.034 30.7847 138.124 35.4374 145.588 35.4374C153.002 35.4374 160.701 30.3683 160.701 20.8332C160.701 12.1849 155.055 7.53223 146.146 7.53223C139.244 7.53223 131.034 12.4613 131.034 21.623ZM145.261 12.8813C146.802 12.8813 148.433 15.021 148.433 23.2529C148.433 26.6024 147.594 30.1816 146.474 30.1816C145.027 30.1816 143.302 27.2522 143.302 19.9501C143.302 15.9041 144.188 12.8813 145.261 12.8813ZM189.344 17.6273V27.4855C189.344 29.4385 190.043 31.0217 190.464 31.1581C190.698 31.2981 190.839 31.6212 190.839 31.9479C190.839 34.3676 186.687 35.4374 185.009 35.4374C181.279 35.4374 179.831 34.3209 178.712 32.4613C177.498 34.3676 173.908 35.4374 170.081 35.4374C165.418 35.4374 161.684 33.7178 161.684 29.8585C161.684 25.9992 164.481 24.136 167.42 23.1595C170.171 22.2297 173.202 21.5333 177.077 21.5333C177.077 14.9276 176.004 11.9049 174.743 11.9049C173.577 11.9049 173.019 13.0214 173.019 15.2077C173.019 16.8375 173.44 18.4171 173.858 19.1136C172.785 20.1834 169.94 21.0666 167.373 21.0666C164.805 21.0666 162.847 19.3936 162.847 16.0441C162.847 10.6484 169.562 7.53223 176.745 7.53223C183.929 7.53223 189.341 10.3683 189.341 17.6237L189.344 17.6273ZM175.118 31.0217C175.863 31.0217 176.796 29.8585 177.077 28.7887V24.2294C175.258 24.2294 173.53 26.1357 173.53 27.8553C173.53 29.9016 174.229 31.0181 175.114 31.0181L175.118 31.0217ZM192.33 4.37287C192.985 4.83598 193.684 7.44233 193.684 10.4184V26.1858C193.684 27.9022 193.47 30.143 193.319 31.7251V31.7253C193.236 32.5886 193.173 33.2557 193.173 33.5345C193.173 34.091 193.45 34.371 193.871 34.511C194.663 34.7444 197.137 34.9777 200.122 34.9777C203.107 34.9777 204.785 34.791 206.045 34.511C206.557 34.4177 206.697 33.9976 206.697 33.4412C206.697 33.0856 206.598 32.4647 206.472 31.6752V31.6751C206.253 30.2968 205.952 28.4046 205.952 26.5125V14.9778C205.952 9.81533 206.791 5.76938 207.583 3.25638C205.901 1.90653 201.098 0.790039 199.139 0.790039C195.221 0.790039 192.33 2.51324 192.33 4.37287ZM236.087 17.6273V27.4855C236.087 29.4385 236.785 31.0217 237.207 31.1581C237.441 31.2981 237.581 31.6212 237.581 31.9479C237.581 34.3676 233.429 35.4374 231.751 35.4374C228.021 35.4374 226.574 34.3209 225.454 32.4613C224.24 34.3676 220.65 35.4374 216.823 35.4374C212.16 35.4374 208.426 33.7178 208.426 29.8585C208.426 25.9992 211.224 24.136 214.162 23.1595C216.913 22.2297 219.945 21.5333 223.819 21.5333C223.819 14.9276 222.746 11.9049 221.486 11.9049C220.319 11.9049 219.761 13.0214 219.761 15.2077C219.761 16.8375 220.182 18.4171 220.6 19.1136C219.527 20.1834 216.682 21.0666 214.115 21.0666C211.548 21.0666 209.589 19.3936 209.589 16.0441C209.589 10.6484 216.304 7.53223 223.488 7.53223C230.671 7.53223 236.083 10.3683 236.083 17.6237L236.087 17.6273ZM221.86 31.0217C222.605 31.0217 223.538 29.8585 223.819 28.7887V24.2294C222.001 24.2294 220.272 26.1357 220.272 27.8553C220.272 29.9016 220.971 31.0181 221.857 31.0181L221.86 31.0217ZM259.97 13.0253C259.97 9.81579 256.146 7.53613 250.035 7.53613H250.039C244.116 7.53613 238.797 10.6056 238.797 15.628C238.797 21.8991 244.761 24.4742 247.617 25.7075L247.753 25.7662C249.15 26.3693 250.55 28.0889 250.55 29.4855C250.55 30.6953 249.711 31.4851 248.732 31.4851C247.799 31.4851 246.914 30.6953 246.914 29.9988C246.914 29.3024 247.148 28.4192 247.382 28.1392C246.492 27.0694 244.768 26.1396 242.902 26.1396C240.897 26.1396 238.517 27.5792 238.517 30.0922C238.517 33.115 242.153 35.4413 248.545 35.4413C255.822 35.4413 261 32.9785 261 27.2561C261 22.327 256.337 19.7242 250.925 17.2579C249.899 16.7948 248.545 15.0249 248.545 13.3986C248.545 12.1888 249.43 11.4923 250.363 11.4923C251.296 11.4923 252.041 12.3755 252.041 13.2586C252.041 13.9551 251.807 14.7915 251.526 15.1182C252.505 16.2347 254.417 17.0245 255.725 17.0245C257.964 17.0245 259.97 15.3049 259.97 13.0253Z" fill="#252525"/>
</svg>
