<svg width="42" height="41" viewBox="0 0 42 41" fill="none" xmlns="http://www.w3.org/2000/svg">
<path d="M27.1952 13.0786H35.7067C36.6755 13.0786 37.6789 12.7672 38.7168 12.1444C40.5852 13.5976 41.5194 15.7428 41.5194 18.5799C41.5194 20.7943 40.9312 22.5589 39.7548 23.8737C38.6476 25.1884 37.5751 25.8458 36.5371 25.8458H27.1952V34.2535C27.1952 36.1219 27.472 37.6097 28.0256 38.7168C27.2644 39.4088 26.261 39.9624 25.0154 40.3776C23.7699 40.7928 22.3513 41.0004 20.7597 41.0004C18.5453 41.0004 16.9192 40.5506 15.8812 39.651C14.8432 38.7515 14.3242 37.5059 14.3242 35.9143V25.8458H5.50132C4.94773 25.8458 4.39414 25.915 3.84055 26.0534C3.28695 26.1226 2.80256 26.261 2.38737 26.4686C1.62618 25.7074 1.03799 24.8078 0.622791 23.7699C0.207597 22.7319 0 21.2095 0 19.2027C0 17.2652 0.657391 15.7774 1.97217 14.7394C3.28695 13.6322 4.63633 13.0786 6.02031 13.0786H14.3242V5.29372C14.3242 4.74013 14.2896 4.18654 14.2204 3.63295C14.1512 3.07936 13.9436 2.52576 13.5976 1.97217C14.3588 1.34938 15.293 0.864985 16.4002 0.51899C17.5074 0.172996 18.9259 0 20.6559 0C22.4551 0 23.9775 0.415193 25.223 1.24558C26.5378 2.07597 27.1952 3.07935 27.1952 4.25574V13.0786Z" fill="#252525"/>
</svg>
