<svg width="48" height="48" viewBox="0 0 48 48" fill="none" xmlns="http://www.w3.org/2000/svg">
<path d="M24 12C12.6 12 4 16.3 4 22C4 26.9 10.38 30.76 19.42 31.76L18.58 32.58C18.3925 32.7659 18.2438 32.9871 18.1422 33.2309C18.0407 33.4746 17.9884 33.736 17.9884 34C17.9884 34.264 18.0407 34.5254 18.1422 34.7692C18.2438 35.0129 18.3925 35.2341 18.58 35.42C18.7659 35.6075 18.9871 35.7562 19.2308 35.8578C19.4746 35.9593 19.736 36.0116 20 36.0116C20.264 36.0116 20.5254 35.9593 20.7692 35.8578C21.0129 35.7562 21.2341 35.6075 21.42 35.42L25.42 31.42C25.6021 31.2298 25.7448 31.0055 25.84 30.76C26.04 30.2731 26.04 29.7269 25.84 29.24C25.7448 28.9945 25.6021 28.7702 25.42 28.58L21.42 24.58C21.0434 24.2034 20.5326 23.9918 20 23.9918C19.4674 23.9918 18.9566 24.2034 18.58 24.58C18.2034 24.9566 17.9918 25.4674 17.9918 26C17.9918 26.5326 18.2034 27.0434 18.58 27.42L18.82 27.64C12 26.68 8 24 8 22C8 19.56 14.24 16 24 16C33.76 16 40 19.56 40 22C40 23.66 37.1 26 31.58 27.2C31.3187 27.2501 31.0701 27.3517 30.8486 27.4991C30.6271 27.6464 30.4372 27.8365 30.2901 28.0581C30.1429 28.2797 30.0415 28.5285 29.9917 28.7898C29.9419 29.0512 29.9447 29.3198 30 29.58C30.0546 29.8377 30.1596 30.082 30.3089 30.299C30.4582 30.516 30.6489 30.7014 30.87 30.8445C31.0912 30.9876 31.3384 31.0856 31.5975 31.1329C31.8567 31.1801 32.1226 31.1758 32.38 31.12C39.68 29.52 44 26.12 44 22C44 16.3 35.4 12 24 12Z" fill="#252525"/>
</svg>
