<svg width="748" height="297" viewBox="0 0 748 297" fill="none" xmlns="http://www.w3.org/2000/svg">
<path d="M745.471 294.5H10.0555C-11.1873 256.685 17.3673 236.472 34.2999 231.092C10.0555 161.915 107.034 145.78 129.419 178.06C124.351 121.565 192.918 133.094 195.93 167.684C194.082 146.471 212.862 144.242 222.483 145.78C216.942 122.723 236.337 113.115 246.728 111.193C219.02 33.9461 318.307 13.1943 340.944 52.3966C339.087 13.1943 396.813 9.73572 403.739 38.5611C460.31 -42.1427 548.052 30.4875 513.417 82.8677C589.911 73.1335 601.159 145.78 572.296 174.6C639.258 145.78 673.892 212.646 662.347 242.621C730.693 234.32 746.24 273.748 745.471 294.5Z" fill="#9DC05A"/>
<path d="M513.417 82.8677C589.911 73.1335 601.159 145.78 572.296 174.6C639.258 145.78 673.892 212.646 662.347 242.621C730.693 234.32 746.24 273.748 745.471 294.5H10.0555C-11.1873 256.685 17.3673 236.472 34.2999 231.092C10.0555 161.915 107.034 145.78 129.419 178.06M513.417 82.8677C503.625 84.1138 492.514 86.5681 479.936 90.4407L513.417 82.8677ZM513.417 82.8677C548.052 30.4875 460.31 -42.1427 403.739 38.5611C396.813 9.73572 339.087 13.1943 340.944 52.3966M340.944 52.3966C339.747 58.1811 339.087 65.0478 339.087 73.1484L340.944 52.3966ZM340.944 52.3966C318.307 13.1943 219.02 33.9461 246.728 111.193C236.337 113.115 216.942 122.723 222.483 145.78C212.862 144.242 194.082 146.471 195.93 167.684C192.918 133.094 124.351 121.565 129.419 178.06M129.419 178.06C127.63 182.817 125.934 188.178 124.351 194.2L129.419 178.06Z" stroke="#252525" stroke-width="5"/>
</svg>
