<svg width="29" height="29" viewBox="0 0 29 29" fill="none" xmlns="http://www.w3.org/2000/svg">
<path d="M23.3585 6.36093C21.8182 5.65417 20.1665 5.13347 18.4395 4.83524C18.408 4.82948 18.3766 4.84386 18.3604 4.87263C18.148 5.25045 17.9127 5.74335 17.7479 6.13077C15.8904 5.85268 14.0424 5.85268 12.223 6.13077C12.0582 5.73474 11.8144 5.25045 11.601 4.87263C11.5848 4.84482 11.5534 4.83044 11.5219 4.83524C9.79585 5.13251 8.14411 5.65322 6.60286 6.36093C6.58952 6.36668 6.57808 6.37628 6.57049 6.38874C3.43749 11.0694 2.57923 15.635 3.00026 20.144C3.00216 20.166 3.01455 20.1871 3.03169 20.2005C5.09876 21.7185 7.10107 22.6401 9.06619 23.2509C9.09764 23.2605 9.13097 23.249 9.15098 23.2231C9.61583 22.5883 10.0302 21.919 10.3855 21.2151C10.4065 21.1739 10.3864 21.125 10.3436 21.1087C9.68632 20.8593 9.06047 20.5553 8.45845 20.2101C8.41083 20.1823 8.40702 20.1142 8.45083 20.0816C8.57752 19.9867 8.70424 19.8879 8.82521 19.7882C8.84709 19.77 8.87759 19.7661 8.90332 19.7776C12.8584 21.5833 17.1401 21.5833 21.0485 19.7776C21.0742 19.7652 21.1047 19.769 21.1276 19.7872C21.2486 19.8869 21.3753 19.9867 21.5029 20.0816C21.5467 20.1142 21.5438 20.1823 21.4962 20.2101C20.8942 20.562 20.2684 20.8593 19.6101 21.1077C19.5673 21.124 19.5482 21.1739 19.5692 21.2151C19.9321 21.918 20.3465 22.5874 20.8028 23.2222C20.8218 23.249 20.8561 23.2605 20.8875 23.2509C22.8622 22.6401 24.8645 21.7185 26.9316 20.2005C26.9497 20.1871 26.9611 20.167 26.963 20.1449C27.4669 14.932 26.119 10.4039 23.3899 6.38969C23.3832 6.37628 23.3718 6.36668 23.3585 6.36093ZM10.9761 17.3985C9.78537 17.3985 8.80424 16.3053 8.80424 14.9627C8.80424 13.6202 9.76635 12.527 10.9761 12.527C12.1954 12.527 13.167 13.6298 13.1479 14.9627C13.1479 16.3053 12.1858 17.3985 10.9761 17.3985ZM19.0062 17.3985C17.8155 17.3985 16.8344 16.3053 16.8344 14.9627C16.8344 13.6202 17.7965 12.527 19.0062 12.527C20.2255 12.527 21.1971 13.6298 21.1781 14.9627C21.1781 16.3053 20.2255 17.3985 19.0062 17.3985Z" fill="#252525"/>
</svg>
