<svg width="847" height="116" viewBox="0 0 847 116" fill="none" xmlns="http://www.w3.org/2000/svg">
<g filter="url(#filter0_d_1282_408)">
<path d="M83.2568 113.497C76.1406 113.497 67.0612 113.043 62.9714 111.086C61.908 110.631 58.2739 105.202 56.3108 100.67C53.5882 94.6353 48.2831 84.0685 45.7124 71.8473V81.2025C45.7124 95.3926 47.2198 106.251 47.2198 109.431C47.2198 110.794 45.8526 111.54 44.1933 111.994C41.7745 112.6 36.0137 113.509 26.3267 113.509C16.6397 113.509 8.91579 112.752 6.49696 111.994C5.12979 111.54 4.23003 110.631 4.23003 108.825C4.23003 106.262 5.88933 93.2839 5.88933 84.6743V33.506C5.90101 23.8479 2.11502 15.2383 0 13.8868C0 7.85194 10.9023 2.25978 23.6157 2.25978C29.9725 2.25978 45.5605 5.88303 51.0175 10.2636C48.4467 18.4188 45.7241 31.5487 45.7241 48.3019V63.2493C51.777 55.6999 54.3477 44.8418 59.1971 33.972C63.135 25.0711 80.8497 20.8421 89.1695 20.8421C92.3479 20.8421 95.6782 21.145 98.8566 21.9023C95.2225 44.3874 77.0637 61.8979 64.6424 66.4299C79.4825 81.3773 90.8288 94.5072 99.1604 105.668C99.1604 110.352 92.9555 113.521 83.2685 113.521L83.2568 113.497Z" fill="white"/>
<path d="M94.1776 110.008C91.8595 111.165 88.4627 111.916 84.1893 112.01L84.1827 111.997H83.2568C79.7242 111.997 75.7285 111.884 72.1249 111.532C68.4833 111.177 65.4367 110.594 63.6463 109.746C63.626 109.729 63.5813 109.692 63.5101 109.622C63.3611 109.476 63.1642 109.257 62.9242 108.96C62.4464 108.37 61.862 107.553 61.2363 106.59C59.9839 104.662 58.6282 102.246 57.6873 100.074L57.6828 100.064L57.6781 100.053C57.3373 99.2979 56.9587 98.4767 56.5521 97.5947C53.6752 91.3544 49.3962 82.0728 47.1803 71.5385L44.2124 71.8473V81.2025C44.2124 88.3498 44.592 94.6533 44.9705 99.5608C45.1117 101.391 45.2501 103.003 45.3688 104.385C45.5737 106.771 45.7198 108.472 45.7198 109.431C45.7198 109.52 45.7089 109.643 45.4264 109.855C45.103 110.099 44.565 110.336 43.8128 110.543C41.5394 111.11 35.9129 112.009 26.3267 112.009C21.5199 112.009 17.2085 111.821 13.8095 111.541C10.3729 111.257 7.99601 110.889 6.95763 110.567C6.46634 110.402 6.19376 110.2 6.03551 109.997C5.88573 109.804 5.73004 109.47 5.73004 108.825C5.73004 107.995 5.9243 105.925 6.18524 103.145C6.29893 101.934 6.42527 100.588 6.55373 99.1509C6.96857 94.5095 7.38933 89.0529 7.38933 84.6743V33.507C7.3953 28.4917 6.4173 23.76 5.16115 20.095C4.53291 18.2621 3.82584 16.6688 3.11839 15.4234C2.64944 14.5978 2.12495 13.8242 1.55816 13.2463C1.71255 12.3876 2.17976 11.4693 3.0231 10.5208C4.08139 9.33061 5.66848 8.17084 7.7099 7.15248C11.7905 5.11687 17.4603 3.75978 23.6157 3.75978C26.6026 3.75978 31.9426 4.62816 37.2624 6.06695C42.0918 7.37312 46.6171 9.0744 49.269 10.8438C46.754 19.189 44.2241 32.0745 44.2241 48.3019V63.2493V67.5181L46.8944 64.1876C50.0653 60.2327 52.2873 55.4595 54.3048 50.4126C55.0302 48.5978 55.7247 46.7611 56.4264 44.9053C57.7054 41.5228 59.0084 38.0765 60.5669 34.5831L60.5688 34.5789C61.4053 32.6882 63.0214 30.9482 65.2343 29.3925C67.4393 27.8424 70.1545 26.5339 73.0532 25.4787C78.8663 23.3626 85.2015 22.3421 89.1695 22.3421C91.794 22.3421 94.5068 22.555 97.1289 23.0637C95.1534 33.4164 90.0337 42.6635 83.8985 49.9309C77.4724 57.5429 70.0317 62.8668 64.1282 65.0207L61.927 65.8239L63.5779 67.4867C78.1858 82.2002 89.3805 95.129 97.6307 106.128C97.4486 107.527 96.4141 108.893 94.1776 110.008Z" stroke="#252525" stroke-width="3"/>
</g>
<g filter="url(#filter1_d_1282_408)">
<path d="M107.936 56.9003C107.632 46.6363 106.417 36.3724 103.086 33.8093C103.086 29.4288 110.203 24.1512 121.701 24.1512C134.111 24.1512 144.253 26.2599 149.558 28.986C148.799 31.7006 147.747 38.1898 147.747 46.0421V92.3755C147.747 99.7735 149.114 106.566 149.114 109.735C149.114 111.389 146.695 111.843 145.632 111.995C142.606 112.449 138.82 113.509 127.917 113.509C116.408 113.509 109.759 112.449 107.784 111.995C107.024 111.843 106.569 111.389 106.569 110.632C106.569 108.069 107.936 102.628 107.936 95.9872V56.9003ZM125.802 0C137.464 0 147.607 2.26017 153.052 6.03488L142.909 17.5105C139.883 18.8735 135.034 19.4677 128.981 19.4677C122.624 19.4677 114.9 18.7104 107.036 17.5105C107.036 9.50668 115.508 0 125.802 0Z" fill="white"/>
<path d="M109.436 56.9003V56.8781L109.435 56.8559C109.282 51.6932 108.899 46.4756 108.122 42.1986C107.733 40.0618 107.238 38.1123 106.601 36.5031C106.102 35.2422 105.474 34.081 104.654 33.2135C104.946 31.877 106.206 30.1609 108.835 28.6348C111.786 26.9218 116.171 25.6512 121.701 25.6512C133.181 25.6512 142.543 27.4792 147.807 29.8123C147.064 33.1119 146.247 39.0674 146.247 46.0421V92.3755C146.247 96.1609 146.597 99.7756 146.94 102.81C147.016 103.475 147.09 104.105 147.159 104.699C147.415 106.881 147.614 108.577 147.614 109.735C147.614 109.736 147.615 109.738 147.615 109.739C147.616 109.743 147.617 109.746 147.592 109.775C147.536 109.839 147.403 109.947 147.145 110.065C146.618 110.308 145.932 110.437 145.421 110.51L145.409 110.511C144.885 110.59 144.343 110.686 143.752 110.79C140.883 111.296 136.842 112.009 127.917 112.009C116.483 112.009 109.953 110.955 108.12 110.533L108.099 110.528L108.077 110.524C108.075 110.523 108.072 110.523 108.07 110.522C108.083 109.662 108.257 108.447 108.488 106.826C108.566 106.278 108.651 105.684 108.738 105.041C109.084 102.505 109.436 99.4072 109.436 95.9872V56.9003ZM125.802 1.50001C136.344 1.50001 145.397 3.37527 150.753 6.37067L142.007 16.2667C139.262 17.4065 134.798 17.9677 128.981 17.9677C123.089 17.9677 115.964 17.3051 108.616 16.23C109.006 13.0549 110.8 9.61056 113.615 6.81879C116.795 3.66483 121.123 1.50001 125.802 1.50001Z" stroke="#252525" stroke-width="3"/>
</g>
<g filter="url(#filter2_d_1282_408)">
<path d="M238.728 113.497C231.612 113.497 222.533 113.043 218.443 111.086C217.379 110.631 213.745 105.202 211.782 100.67C209.06 94.6354 203.755 84.0685 201.184 71.8473V81.2026C201.184 95.3927 202.691 106.251 202.691 109.431C202.691 110.794 201.324 111.54 199.665 111.994C197.246 112.6 191.485 113.509 181.798 113.509C172.111 113.509 164.387 112.752 161.968 111.994C160.601 111.54 159.701 110.631 159.701 108.826C159.701 106.262 161.372 93.284 161.372 84.6744V33.5061C161.372 23.8479 157.586 15.2383 155.471 13.8869C155.471 7.85201 166.374 2.27149 179.087 2.27149C185.444 2.27149 201.044 5.89475 206.489 10.2753C203.918 18.4305 201.195 31.5605 201.195 48.3136V63.261C207.248 55.7116 209.819 44.8535 214.669 33.9837C218.606 25.0829 236.321 20.8538 244.641 20.8538C247.819 20.8538 251.15 21.1567 254.328 21.914C250.694 44.3991 232.535 61.9096 220.114 66.4416C234.954 81.389 246.3 94.5189 254.632 105.68C254.632 110.363 248.427 113.532 238.74 113.532L238.728 113.497Z" fill="white"/>
<path d="M249.649 110.02C247.359 111.162 244.016 111.91 239.816 112.018L239.809 111.997H238.728C235.196 111.997 231.2 111.884 227.596 111.533C223.955 111.177 220.908 110.594 219.118 109.746C219.097 109.729 219.053 109.692 218.982 109.622C218.833 109.476 218.636 109.257 218.396 108.96C217.918 108.37 217.333 107.553 216.708 106.59C215.455 104.662 214.1 102.246 213.159 100.074L213.154 100.064L213.15 100.053C212.809 99.298 212.43 98.4768 212.024 97.5948C209.147 91.3545 204.868 82.0728 202.652 71.5386L199.684 71.8473V81.2026C199.684 88.3498 200.063 94.6533 200.442 99.5609C200.583 101.391 200.722 103.003 200.84 104.385C201.045 106.771 201.191 108.472 201.191 109.431C201.191 109.52 201.18 109.643 200.898 109.855C200.574 110.099 200.036 110.336 199.284 110.543C197.011 111.11 191.384 112.009 181.798 112.009C176.991 112.009 172.68 111.821 169.281 111.541C165.844 111.257 163.467 110.889 162.429 110.567C161.938 110.402 161.665 110.2 161.507 109.997C161.357 109.804 161.201 109.47 161.201 108.826C161.201 107.996 161.397 105.927 161.66 103.147C161.774 101.936 161.901 100.59 162.031 99.1519C162.449 94.5105 162.872 89.0535 162.872 84.6744V33.5061C162.872 28.491 161.891 23.7594 160.634 20.0946C160.005 18.2618 159.297 16.6686 158.59 15.4233C158.121 14.5978 157.596 13.8242 157.03 13.2463C157.184 12.388 157.651 11.4706 158.494 10.5232C159.552 9.3341 161.139 8.17572 163.181 7.15874C167.261 5.12588 172.931 3.7715 179.087 3.7715C182.074 3.7715 187.417 4.63991 192.738 6.0787C197.569 7.38494 202.094 9.08604 204.741 10.8546C202.226 19.1998 199.695 32.0856 199.695 48.3136V63.261V67.5298L202.366 64.1993C205.537 60.2444 207.759 55.4712 209.776 50.4243C210.502 48.6095 211.196 46.7728 211.898 44.9169C213.177 41.5345 214.48 38.0882 216.038 34.5949L216.04 34.5906C216.877 32.6999 218.493 30.9599 220.706 29.4043C222.911 27.8541 225.626 26.5456 228.525 25.4905C234.338 23.3744 240.673 22.3538 244.641 22.3538C247.265 22.3538 249.978 22.5667 252.6 23.0754C250.625 33.4282 245.505 42.6752 239.37 49.9426C232.944 57.5546 225.503 62.8785 219.6 65.0324L217.398 65.8356L219.049 67.4984C233.657 82.2119 244.852 95.1408 253.102 106.139C252.92 107.538 251.885 108.905 249.649 110.02Z" stroke="#252525" stroke-width="3"/>
</g>
<g filter="url(#filter3_d_1282_408)">
<path d="M263.407 56.9003C263.103 46.6363 261.9 36.3724 258.558 33.8093C258.558 29.4288 265.674 24.1512 277.172 24.1512C289.582 24.1512 299.725 26.2599 305.03 28.986C304.27 31.7006 303.219 38.1898 303.219 46.0421V92.3756C303.219 99.7735 304.586 106.566 304.586 109.735C304.586 111.389 302.167 111.843 301.104 111.995C298.077 112.449 294.291 113.509 283.389 113.509C271.879 113.509 265.218 112.449 263.255 111.995C262.496 111.843 262.04 111.389 262.04 110.632C262.04 108.069 263.407 102.628 263.407 95.9872V56.9003ZM281.274 0C292.924 0 303.067 2.26017 308.524 6.03488L298.381 17.5105C295.354 18.8736 290.505 19.4677 284.452 19.4677C278.095 19.4677 270.372 18.7104 262.496 17.5105C262.496 9.50668 270.967 0 281.262 0L281.274 0Z" fill="white"/>
<path d="M264.907 56.9003V56.8781L264.907 56.8559C264.754 51.6939 264.374 46.4762 263.598 42.1991C263.21 40.0622 262.715 38.1123 262.077 36.5027C261.578 35.2413 260.948 34.0797 260.126 33.2122C260.418 31.8758 261.678 30.1604 264.306 28.6348C267.257 26.9218 271.642 25.6512 277.172 25.6512C288.652 25.6512 298.014 27.4792 303.278 29.8123C302.535 33.1119 301.719 39.0674 301.719 46.0421V92.3756C301.719 96.1609 302.068 99.7756 302.412 102.81C302.487 103.475 302.561 104.105 302.631 104.699C302.887 106.881 303.086 108.577 303.086 109.735C303.086 109.736 303.086 109.738 303.086 109.739C303.088 109.743 303.089 109.746 303.063 109.775C303.007 109.839 302.875 109.947 302.617 110.065C302.089 110.308 301.403 110.437 300.892 110.51L300.881 110.511C300.356 110.59 299.815 110.686 299.223 110.79C296.354 111.296 292.314 112.009 283.389 112.009C271.954 112.009 265.413 110.955 263.593 110.533L263.571 110.528L263.549 110.524C263.546 110.523 263.543 110.523 263.541 110.522C263.555 109.662 263.728 108.447 263.959 106.826C264.038 106.278 264.122 105.684 264.21 105.041C264.555 102.505 264.907 99.4072 264.907 95.9872V56.9003ZM281.274 1.50001C291.804 1.50001 300.858 3.37523 306.224 6.37174L297.478 16.2667C294.733 17.4065 290.27 17.9677 284.452 17.9677C278.56 17.9677 271.434 17.305 264.076 16.2297C264.466 13.0547 266.26 9.61048 269.075 6.81879C272.255 3.66483 276.583 1.50001 281.262 1.50001H281.274Z" stroke="#252525" stroke-width="3"/>
</g>
<g filter="url(#filter4_d_1282_408)">
<path d="M413.878 113.497C406.761 113.497 397.682 113.043 393.592 111.086C392.529 110.631 388.895 105.202 386.931 100.67C384.209 94.6354 378.904 84.0685 376.333 71.8473V81.2026C376.333 95.3927 377.84 106.251 377.84 109.431C377.84 110.794 376.473 111.54 374.814 111.994C372.395 112.6 366.634 113.509 356.947 113.509C347.26 113.509 339.536 112.752 337.118 111.994C335.75 111.54 334.851 110.631 334.851 108.826C334.851 106.262 336.51 93.284 336.51 84.6744V33.5061C336.51 23.8479 332.724 15.2383 330.609 13.8869C330.609 7.85201 341.511 2.27149 354.225 2.27149C360.581 2.27149 376.169 5.89475 381.626 10.2753C379.056 18.4305 376.333 31.5605 376.333 48.3136V63.261C382.386 55.7116 384.957 44.8535 389.806 33.9837C393.744 25.0829 411.459 20.8538 419.779 20.8538C422.957 20.8538 426.287 21.1567 429.466 21.914C425.831 44.3991 407.661 61.9096 395.251 66.4416C410.092 81.389 421.438 94.5189 429.769 105.68C429.769 110.363 423.565 113.532 413.878 113.532V113.497Z" fill="white"/>
<path d="M415.378 112.005V111.997H413.878C410.345 111.997 406.349 111.884 402.746 111.533C399.104 111.177 396.057 110.594 394.267 109.746C394.247 109.729 394.202 109.692 394.131 109.622C393.982 109.476 393.785 109.257 393.545 108.96C393.067 108.37 392.483 107.553 391.857 106.59C390.605 104.662 389.249 102.246 388.308 100.074L388.303 100.064L388.299 100.053C387.958 99.298 387.579 98.4768 387.173 97.5948C384.296 91.3545 380.017 82.0728 377.801 71.5386L374.833 71.8473V81.2026C374.833 88.3498 375.213 94.6533 375.591 99.5609C375.732 101.391 375.871 103.003 375.989 104.385C376.194 106.771 376.34 108.472 376.34 109.431C376.34 109.52 376.33 109.643 376.047 109.855C375.724 110.099 375.186 110.336 374.433 110.543C372.16 111.11 366.534 112.009 356.947 112.009C352.141 112.009 347.829 111.821 344.43 111.541C340.994 111.257 338.617 110.889 337.578 110.567C337.087 110.402 336.814 110.2 336.656 109.997C336.506 109.804 336.351 109.47 336.351 108.826C336.351 107.995 336.545 105.925 336.806 103.145C336.92 101.934 337.046 100.588 337.174 99.1509C337.589 94.5096 338.01 89.053 338.01 84.6744V33.5061C338.01 28.491 337.029 23.7594 335.771 20.0946C335.142 18.2618 334.435 16.6686 333.727 15.4233C333.258 14.5978 332.734 13.8242 332.167 13.2463C332.322 12.388 332.789 11.4706 333.632 10.5232C334.69 9.3341 336.277 8.17572 338.318 7.15874C342.399 5.12588 348.069 3.7715 354.225 3.7715C357.212 3.7715 362.552 4.63987 367.871 6.07867C372.701 7.38484 377.226 9.08611 379.878 10.8555C377.363 19.2007 374.833 32.0862 374.833 48.3136V63.261V67.5298L377.503 64.1993C380.674 60.2444 382.896 55.4712 384.914 50.4243C385.639 48.6095 386.334 46.7729 387.035 44.917C388.314 41.5345 389.617 38.0882 391.176 34.5949L391.178 34.5906C392.014 32.6999 393.63 30.9599 395.843 29.4043C398.048 27.8541 400.763 26.5456 403.662 25.4905C409.475 23.3744 415.811 22.3538 419.779 22.3538C422.403 22.3538 425.116 22.5667 427.738 23.0754C425.762 33.4279 420.64 42.6749 414.503 49.9425C408.076 57.5546 400.635 62.8787 394.737 65.0326L392.536 65.8361L394.187 67.4984C408.795 82.2119 419.989 95.1408 428.24 106.139C428.058 107.538 427.023 108.905 424.787 110.02C422.574 111.124 419.379 111.858 415.378 112.005Z" stroke="#252525" stroke-width="3"/>
</g>
<g filter="url(#filter5_d_1282_408)">
<path d="M472.467 115.001C448.243 115.001 425.235 99.9018 425.235 70.1701C425.235 40.4384 451.878 24.4425 474.278 24.4425C503.187 24.4425 521.509 39.5413 521.509 67.607C521.509 98.5503 496.527 115.001 472.467 115.001ZM481.698 75.4593C481.698 48.7451 476.405 41.8015 471.403 41.8015C467.921 41.8015 465.047 51.6111 465.047 64.741C465.047 88.4378 470.644 97.9445 475.341 97.9445C478.975 97.9445 481.698 86.3291 481.698 75.4593Z" fill="white"/>
<path d="M472.467 113.501C460.652 113.501 449.207 109.817 440.741 102.594C432.306 95.3971 426.735 84.612 426.735 70.1701C426.735 41.5383 452.406 25.9425 474.278 25.9425C488.487 25.9425 499.897 29.6525 507.738 36.6213C515.553 43.567 520.009 53.9166 520.009 67.607C520.009 97.5213 495.914 113.501 472.467 113.501ZM483.198 75.4593C483.198 62.0434 481.874 53.4089 479.827 48.075C477.774 42.7296 474.801 40.3015 471.403 40.3015C469.775 40.3015 468.55 41.4382 467.698 42.7003C466.813 44.0118 466.074 45.8191 465.476 47.9406C464.274 52.204 463.547 58.0836 463.547 64.741C463.547 76.6841 464.954 85.1822 467.027 90.7522C468.062 93.5353 469.291 95.661 470.658 97.116C472.028 98.5739 473.628 99.4445 475.341 99.4445C477.094 99.4445 478.334 98.0783 479.149 96.7397C480.022 95.3057 480.748 93.3583 481.332 91.164C482.506 86.7542 483.198 81.0004 483.198 75.4593Z" stroke="#252525" stroke-width="3"/>
</g>
<g filter="url(#filter6_d_1282_408)">
<path d="M614.464 57.2033V89.1951C614.464 95.5329 616.731 100.671 618.098 101.113C618.858 101.568 619.314 102.616 619.314 103.676C619.314 111.529 605.841 115.001 600.395 115.001C588.289 115.001 583.592 111.377 579.958 105.342C576.02 111.529 564.37 115.001 551.949 115.001C536.816 115.001 524.699 109.42 524.699 96.896C524.699 84.3719 533.778 78.3253 543.313 75.1564C552.241 72.139 562.08 69.8788 574.653 69.8788C574.653 48.4422 571.171 38.6326 567.081 38.6326C563.295 38.6326 561.484 42.2559 561.484 49.3509C561.484 54.6402 562.851 59.7663 564.206 62.0265C560.724 65.4983 551.493 68.3643 543.161 68.3643C534.83 68.3643 528.473 62.9352 528.473 52.0655C528.473 34.555 550.266 24.4425 573.578 24.4425C596.89 24.4425 614.453 33.6463 614.453 57.1916L614.464 57.2033ZM568.296 100.671C570.715 100.671 573.741 96.896 574.653 93.4242V78.6282C568.752 78.6282 563.143 84.8146 563.143 90.3951C563.143 97.0358 565.41 100.659 568.284 100.659L568.296 100.671Z" fill="white"/>
<path d="M581.243 104.569L579.993 102.494L578.693 104.537C576.995 107.204 573.486 109.471 568.663 111.067C563.886 112.649 558.032 113.501 551.949 113.501C544.532 113.501 538.023 112.128 533.422 109.36C528.899 106.638 526.199 102.572 526.199 96.896C526.199 91.0445 528.301 86.7788 531.493 83.5769C534.724 80.3349 539.133 78.1265 543.786 76.5799L543.793 76.5775C552.603 73.6 562.278 71.3788 574.653 71.3788H576.153V69.8788C576.153 59.1027 575.28 51.1418 573.849 45.827C573.136 43.1782 572.258 41.0872 571.207 39.6249C570.158 38.1642 568.777 37.1326 567.081 37.1326C565.885 37.1326 564.773 37.4223 563.799 38.0471C562.832 38.6678 562.087 39.5633 561.53 40.6427C560.438 42.7562 559.984 45.7255 559.984 49.3509C559.984 54.1086 561.044 58.8343 562.335 61.6695C560.723 62.9079 558.179 64.1159 555.066 65.0622C551.412 66.173 547.168 66.8643 543.161 66.8643C539.325 66.8643 536.069 65.6208 533.77 63.2474C531.471 60.8735 529.973 57.207 529.973 52.0655C529.973 44.0359 534.943 37.55 543.02 32.994C551.105 28.4337 562.112 25.9425 573.578 25.9425C585.074 25.9425 594.934 28.2179 601.882 33.2061C608.75 38.1363 612.953 45.8442 612.953 57.1916V57.8122L612.964 57.8239V89.1951C612.964 92.5337 613.56 95.5682 614.351 97.8553C614.746 98.9959 615.202 99.9888 615.684 100.755C615.925 101.137 616.191 101.493 616.482 101.788C616.709 102.018 617.009 102.27 617.382 102.441C617.549 102.59 617.814 103.017 617.814 103.676C617.814 106.641 615.243 109.105 611.273 110.919C607.414 112.682 602.896 113.501 600.395 113.501C594.478 113.501 590.547 112.613 587.7 111.108C584.881 109.619 582.976 107.446 581.243 104.569ZM567.619 102.114L567.676 102.171H568.296C569.283 102.171 570.207 101.791 570.99 101.29C571.783 100.783 572.525 100.093 573.182 99.3217C574.488 97.7877 575.586 95.7772 576.104 93.8051L576.153 93.6178V93.4242V78.6282V77.1282H574.653C571.184 77.1282 567.938 78.9309 565.599 81.3838C563.263 83.8339 561.643 87.129 561.643 90.3951C561.643 93.8592 562.23 96.6948 563.312 98.7233C564.288 100.552 565.763 101.861 567.619 102.114Z" stroke="#252525" stroke-width="3"/>
</g>
<g filter="url(#filter7_d_1282_408)">
<path d="M628.545 33.8087C628.545 24.1506 626.278 15.6924 624.151 14.1896C624.151 8.15468 633.534 2.56251 646.248 2.56251C652.605 2.56251 668.193 6.18577 673.65 10.5663C671.079 18.7215 668.356 31.8515 668.356 48.6047V86.0372C668.356 95.6954 670.775 105.353 670.775 108.522C670.775 110.328 670.319 111.691 668.66 111.994C664.57 112.903 659.125 113.509 649.438 113.509C639.751 113.509 631.723 112.751 629.153 111.994C627.785 111.54 626.886 110.631 626.886 108.825C626.886 106.262 628.545 93.5867 628.545 84.977V33.8087Z" fill="white"/>
<path d="M668.391 110.519L668.363 110.524L668.335 110.53C664.393 111.406 659.068 112.009 649.438 112.009C644.631 112.009 640.243 111.821 636.747 111.54C633.23 111.258 630.733 110.891 629.602 110.563C629.118 110.398 628.848 110.199 628.691 109.996C628.541 109.804 628.386 109.47 628.386 108.825C628.386 107.996 628.58 105.966 628.84 103.235C628.954 102.044 629.08 100.72 629.209 99.3044C629.624 94.7378 630.045 89.3565 630.045 84.977V33.8087C630.045 28.8711 629.466 24.2254 628.605 20.5947C628.175 18.7817 627.667 17.188 627.107 15.9235C626.721 15.0533 626.259 14.2143 625.695 13.581C625.987 11.5362 627.745 9.29277 631.152 7.42895C634.827 5.4185 640.095 4.06252 646.248 4.06252C649.235 4.06252 654.575 4.93089 659.895 6.36969C664.724 7.67585 669.249 9.37713 671.901 11.1465C669.386 19.4918 666.856 32.3772 666.856 48.6047V86.0372C666.856 90.9801 667.474 95.8974 668.082 99.9365C668.235 100.948 668.387 101.907 668.528 102.798L668.565 103.025C668.693 103.83 668.811 104.574 668.914 105.254C669.144 106.775 669.275 107.861 669.275 108.522C669.275 109.34 669.164 109.838 669.015 110.118C668.917 110.302 668.786 110.446 668.391 110.519Z" stroke="#252525" stroke-width="3"/>
</g>
<g filter="url(#filter8_d_1282_408)">
<path d="M766.149 57.2033V89.1951C766.149 95.5329 768.416 100.671 769.784 101.113C770.543 101.568 770.999 102.616 770.999 103.676C770.999 111.529 757.526 115.001 752.08 115.001C739.975 115.001 735.277 111.377 731.643 105.342C727.705 111.529 716.055 115.001 703.634 115.001C688.501 115.001 676.384 109.42 676.384 96.896C676.384 84.3719 685.463 78.3253 694.998 75.1564C703.926 72.139 713.765 69.8788 726.338 69.8788C726.338 48.4422 722.856 38.6326 718.766 38.6326C714.98 38.6326 713.169 42.2559 713.169 49.3509C713.169 54.6402 714.536 59.7663 715.892 62.0265C712.409 65.4983 703.178 68.3643 694.847 68.3643C686.515 68.3643 680.158 62.9352 680.158 52.0655C680.158 34.555 701.951 24.4425 725.263 24.4425C748.575 24.4425 766.138 33.6463 766.138 57.1916L766.149 57.2033ZM719.981 100.671C722.4 100.671 725.427 96.896 726.338 93.4242V78.6282C720.437 78.6282 714.828 84.8146 714.828 90.3951C714.828 97.0358 717.095 100.659 719.97 100.659L719.981 100.671Z" fill="white"/>
<path d="M732.928 104.569L731.679 102.494L730.378 104.537C728.68 107.204 725.171 109.471 720.348 111.067C715.571 112.649 709.717 113.501 703.634 113.501C696.217 113.501 689.708 112.128 685.108 109.36C680.584 106.638 677.884 102.572 677.884 96.896C677.884 91.0445 679.987 86.7788 683.178 83.5769C686.409 80.3349 690.818 78.1265 695.472 76.5799L695.479 76.5775C704.288 73.6 713.963 71.3788 726.338 71.3788H727.838V69.8788C727.838 59.1027 726.965 51.1418 725.534 45.827C724.821 43.1782 723.944 41.0872 722.893 39.6249C721.843 38.1642 720.462 37.1326 718.766 37.1326C717.57 37.1326 716.458 37.4223 715.484 38.0471C714.517 38.6678 713.773 39.5633 713.215 40.6427C712.123 42.7562 711.669 45.7255 711.669 49.3509C711.669 54.1086 712.729 58.8343 714.02 61.6695C712.408 62.9079 709.864 64.1159 706.751 65.0622C703.097 66.173 698.853 66.8643 694.847 66.8643C691.01 66.8643 687.754 65.6208 685.456 63.2474C683.156 60.8735 681.658 57.207 681.658 52.0655C681.658 44.0359 686.629 37.55 694.706 32.994C702.79 28.4337 713.797 25.9425 725.263 25.9425C736.759 25.9425 746.619 28.2179 753.568 33.2061C760.435 38.1363 764.638 45.8442 764.638 57.1916V57.8122L764.649 57.8239V89.1951C764.649 92.5337 765.245 95.5682 766.036 97.8553C766.431 98.9959 766.887 99.9888 767.37 100.755C767.61 101.137 767.876 101.493 768.168 101.788C768.394 102.018 768.694 102.27 769.067 102.441C769.234 102.59 769.499 103.017 769.499 103.676C769.499 106.641 766.928 109.105 762.958 110.919C759.099 112.682 754.582 113.501 752.08 113.501C746.163 113.501 742.232 112.613 739.386 111.108C736.566 109.619 734.661 107.446 732.928 104.569ZM719.305 102.114L719.361 102.171H719.981C720.968 102.171 721.892 101.791 722.675 101.29C723.468 100.783 724.211 100.093 724.867 99.3217C726.173 97.7877 727.271 95.7772 727.789 93.8051L727.838 93.6178V93.4242V78.6282V77.1282H726.338C722.87 77.1282 719.624 78.9309 717.285 81.3838C714.948 83.8339 713.328 87.129 713.328 90.3951C713.328 93.8592 713.915 96.6948 714.997 98.7233C715.973 100.552 717.448 101.861 719.305 102.114Z" stroke="#252525" stroke-width="3"/>
</g>
<g filter="url(#filter9_d_1282_408)">
<path d="M811.419 24.4542C831.248 24.4542 843.658 31.8522 843.658 42.2676C843.658 49.6656 837.149 55.2461 829.881 55.2461C825.64 55.2461 819.435 52.683 816.256 49.0597C817.168 47.9996 817.927 45.285 817.927 43.0249C817.927 40.1589 815.508 37.2929 812.482 37.2929C809.456 37.2929 806.581 39.5531 806.581 43.4792C806.581 48.7568 810.975 54.5004 814.305 56.0033C831.868 64.0071 847 72.4536 847 88.4495C847 107.02 830.197 115.012 806.581 115.012C785.84 115.012 774.038 107.463 774.038 97.6533C774.038 89.4981 781.762 84.8263 788.27 84.8263C794.323 84.8263 799.92 87.8437 802.807 91.3155C802.047 92.2242 801.288 95.0902 801.288 97.3504C801.288 99.6106 804.162 102.174 807.189 102.174C810.367 102.174 813.09 99.6106 813.09 95.6844C813.09 91.1524 808.544 85.5719 804.01 83.6146C794.931 79.6885 774.949 71.3934 774.949 50.7141C774.949 34.4153 792.208 24.4542 811.43 24.4542H811.419Z" fill="white"/>
<path d="M818.148 48.8591C818.45 48.2499 818.692 47.5654 818.879 46.8938C819.214 45.6866 819.427 44.3075 819.427 43.0249C819.427 39.4592 816.46 35.7929 812.482 35.7929C808.682 35.7929 805.081 38.6711 805.081 43.4792C805.081 46.5069 806.327 49.5488 807.944 51.986C809.548 54.4036 811.672 56.4599 813.685 57.3693C822.469 61.3725 830.464 65.4105 836.264 70.3695C842.014 75.2864 845.5 81.0123 845.5 88.4495C845.5 97.1851 841.595 103.35 834.871 107.411C828.051 111.529 818.26 113.512 806.581 113.512C796.367 113.512 788.511 111.649 783.266 108.704C778.043 105.77 775.538 101.861 775.538 97.6533C775.538 94.0998 777.204 91.3022 779.648 89.3546C782.12 87.3846 785.346 86.3263 788.27 86.3263C793.414 86.3263 798.2 88.6999 800.964 91.5141C800.929 91.5938 800.895 91.6733 800.862 91.7523C800.652 92.2625 800.465 92.8457 800.309 93.4541C800 94.6635 799.788 96.0716 799.788 97.3504C799.788 99.0854 800.849 100.673 802.137 101.757C803.458 102.869 805.265 103.674 807.189 103.674C811.263 103.674 814.59 100.37 814.59 95.6844C814.59 92.9598 813.249 90.1141 811.438 87.7674C809.612 85.4023 807.15 83.3366 804.606 82.2378C804.473 82.1805 804.338 82.1222 804.201 82.0631C799.629 80.088 792.804 77.1399 787.04 72.2982C781.146 67.3474 776.449 60.4919 776.449 50.7141C776.449 43.1666 780.423 37.0277 786.82 32.7159C793.243 28.3866 802.056 25.9542 811.43 25.9542V24.4542C831.253 24.4571 843.658 31.8542 843.658 42.2676C843.658 49.6656 837.149 55.2461 829.881 55.2461C825.64 55.2461 819.435 52.683 816.256 49.0597M818.148 48.8591C817.929 49.3033 817.677 49.7076 817.394 50.0376L816.256 49.0597M818.148 48.8591C817.875 48.6016 817.619 48.3384 817.384 48.0706L816.256 49.0597M818.148 48.8591L802.807 91.3155C799.92 87.8437 794.323 84.8263 788.27 84.8263C781.762 84.8263 774.038 89.4981 774.038 97.6533C774.038 107.463 785.84 115.012 806.581 115.012C830.197 115.012 847 107.02 847 88.4495C847 72.4536 831.868 64.0071 814.305 56.0033C810.975 54.5004 806.581 48.7568 806.581 43.4792C806.581 39.5531 809.456 37.2929 812.482 37.2929C815.508 37.2929 817.927 40.1589 817.927 43.0249C817.927 45.285 817.168 47.9996 816.256 49.0597" stroke="#252525" stroke-width="3"/>
</g>
<defs>
<filter id="filter0_d_1282_408" x="0" y="2.25978" width="99.1606" height="118.26" filterUnits="userSpaceOnUse" color-interpolation-filters="sRGB">
<feFlood flood-opacity="0" result="BackgroundImageFix"/>
<feColorMatrix in="SourceAlpha" type="matrix" values="0 0 0 0 0 0 0 0 0 0 0 0 0 0 0 0 0 0 127 0" result="hardAlpha"/>
<feOffset dy="7"/>
<feComposite in2="hardAlpha" operator="out"/>
<feColorMatrix type="matrix" values="0 0 0 0 0 0 0 0 0 0 0 0 0 0 0 0 0 0 1 0"/>
<feBlend mode="normal" in2="BackgroundImageFix" result="effect1_dropShadow_1282_408"/>
<feBlend mode="normal" in="SourceGraphic" in2="effect1_dropShadow_1282_408" result="shape"/>
</filter>
<filter id="filter1_d_1282_408" x="103.086" y="0" width="49.9661" height="120.509" filterUnits="userSpaceOnUse" color-interpolation-filters="sRGB">
<feFlood flood-opacity="0" result="BackgroundImageFix"/>
<feColorMatrix in="SourceAlpha" type="matrix" values="0 0 0 0 0 0 0 0 0 0 0 0 0 0 0 0 0 0 127 0" result="hardAlpha"/>
<feOffset dy="7"/>
<feComposite in2="hardAlpha" operator="out"/>
<feColorMatrix type="matrix" values="0 0 0 0 0 0 0 0 0 0 0 0 0 0 0 0 0 0 1 0"/>
<feBlend mode="normal" in2="BackgroundImageFix" result="effect1_dropShadow_1282_408"/>
<feBlend mode="normal" in="SourceGraphic" in2="effect1_dropShadow_1282_408" result="shape"/>
</filter>
<filter id="filter2_d_1282_408" x="155.471" y="2.27149" width="99.1606" height="118.26" filterUnits="userSpaceOnUse" color-interpolation-filters="sRGB">
<feFlood flood-opacity="0" result="BackgroundImageFix"/>
<feColorMatrix in="SourceAlpha" type="matrix" values="0 0 0 0 0 0 0 0 0 0 0 0 0 0 0 0 0 0 127 0" result="hardAlpha"/>
<feOffset dy="7"/>
<feComposite in2="hardAlpha" operator="out"/>
<feColorMatrix type="matrix" values="0 0 0 0 0 0 0 0 0 0 0 0 0 0 0 0 0 0 1 0"/>
<feBlend mode="normal" in2="BackgroundImageFix" result="effect1_dropShadow_1282_408"/>
<feBlend mode="normal" in="SourceGraphic" in2="effect1_dropShadow_1282_408" result="shape"/>
</filter>
<filter id="filter3_d_1282_408" x="258.558" y="0" width="49.9661" height="120.509" filterUnits="userSpaceOnUse" color-interpolation-filters="sRGB">
<feFlood flood-opacity="0" result="BackgroundImageFix"/>
<feColorMatrix in="SourceAlpha" type="matrix" values="0 0 0 0 0 0 0 0 0 0 0 0 0 0 0 0 0 0 127 0" result="hardAlpha"/>
<feOffset dy="7"/>
<feComposite in2="hardAlpha" operator="out"/>
<feColorMatrix type="matrix" values="0 0 0 0 0 0 0 0 0 0 0 0 0 0 0 0 0 0 1 0"/>
<feBlend mode="normal" in2="BackgroundImageFix" result="effect1_dropShadow_1282_408"/>
<feBlend mode="normal" in="SourceGraphic" in2="effect1_dropShadow_1282_408" result="shape"/>
</filter>
<filter id="filter4_d_1282_408" x="330.609" y="2.27149" width="99.1606" height="118.26" filterUnits="userSpaceOnUse" color-interpolation-filters="sRGB">
<feFlood flood-opacity="0" result="BackgroundImageFix"/>
<feColorMatrix in="SourceAlpha" type="matrix" values="0 0 0 0 0 0 0 0 0 0 0 0 0 0 0 0 0 0 127 0" result="hardAlpha"/>
<feOffset dy="7"/>
<feComposite in2="hardAlpha" operator="out"/>
<feColorMatrix type="matrix" values="0 0 0 0 0 0 0 0 0 0 0 0 0 0 0 0 0 0 1 0"/>
<feBlend mode="normal" in2="BackgroundImageFix" result="effect1_dropShadow_1282_408"/>
<feBlend mode="normal" in="SourceGraphic" in2="effect1_dropShadow_1282_408" result="shape"/>
</filter>
<filter id="filter5_d_1282_408" x="425.235" y="24.4425" width="96.2739" height="97.5581" filterUnits="userSpaceOnUse" color-interpolation-filters="sRGB">
<feFlood flood-opacity="0" result="BackgroundImageFix"/>
<feColorMatrix in="SourceAlpha" type="matrix" values="0 0 0 0 0 0 0 0 0 0 0 0 0 0 0 0 0 0 127 0" result="hardAlpha"/>
<feOffset dy="7"/>
<feComposite in2="hardAlpha" operator="out"/>
<feColorMatrix type="matrix" values="0 0 0 0 0 0 0 0 0 0 0 0 0 0 0 0 0 0 1 0"/>
<feBlend mode="normal" in2="BackgroundImageFix" result="effect1_dropShadow_1282_408"/>
<feBlend mode="normal" in="SourceGraphic" in2="effect1_dropShadow_1282_408" result="shape"/>
</filter>
<filter id="filter6_d_1282_408" x="524.699" y="24.4425" width="94.6147" height="97.5581" filterUnits="userSpaceOnUse" color-interpolation-filters="sRGB">
<feFlood flood-opacity="0" result="BackgroundImageFix"/>
<feColorMatrix in="SourceAlpha" type="matrix" values="0 0 0 0 0 0 0 0 0 0 0 0 0 0 0 0 0 0 127 0" result="hardAlpha"/>
<feOffset dy="7"/>
<feComposite in2="hardAlpha" operator="out"/>
<feColorMatrix type="matrix" values="0 0 0 0 0 0 0 0 0 0 0 0 0 0 0 0 0 0 1 0"/>
<feBlend mode="normal" in2="BackgroundImageFix" result="effect1_dropShadow_1282_408"/>
<feBlend mode="normal" in="SourceGraphic" in2="effect1_dropShadow_1282_408" result="shape"/>
</filter>
<filter id="filter7_d_1282_408" x="624.151" y="2.56251" width="49.4983" height="117.946" filterUnits="userSpaceOnUse" color-interpolation-filters="sRGB">
<feFlood flood-opacity="0" result="BackgroundImageFix"/>
<feColorMatrix in="SourceAlpha" type="matrix" values="0 0 0 0 0 0 0 0 0 0 0 0 0 0 0 0 0 0 127 0" result="hardAlpha"/>
<feOffset dy="7"/>
<feComposite in2="hardAlpha" operator="out"/>
<feColorMatrix type="matrix" values="0 0 0 0 0 0 0 0 0 0 0 0 0 0 0 0 0 0 1 0"/>
<feBlend mode="normal" in2="BackgroundImageFix" result="effect1_dropShadow_1282_408"/>
<feBlend mode="normal" in="SourceGraphic" in2="effect1_dropShadow_1282_408" result="shape"/>
</filter>
<filter id="filter8_d_1282_408" x="676.384" y="24.4425" width="94.6147" height="97.5581" filterUnits="userSpaceOnUse" color-interpolation-filters="sRGB">
<feFlood flood-opacity="0" result="BackgroundImageFix"/>
<feColorMatrix in="SourceAlpha" type="matrix" values="0 0 0 0 0 0 0 0 0 0 0 0 0 0 0 0 0 0 127 0" result="hardAlpha"/>
<feOffset dy="7"/>
<feComposite in2="hardAlpha" operator="out"/>
<feColorMatrix type="matrix" values="0 0 0 0 0 0 0 0 0 0 0 0 0 0 0 0 0 0 1 0"/>
<feBlend mode="normal" in2="BackgroundImageFix" result="effect1_dropShadow_1282_408"/>
<feBlend mode="normal" in="SourceGraphic" in2="effect1_dropShadow_1282_408" result="shape"/>
</filter>
<filter id="filter9_d_1282_408" x="774.038" y="24.4542" width="72.9623" height="97.5581" filterUnits="userSpaceOnUse" color-interpolation-filters="sRGB">
<feFlood flood-opacity="0" result="BackgroundImageFix"/>
<feColorMatrix in="SourceAlpha" type="matrix" values="0 0 0 0 0 0 0 0 0 0 0 0 0 0 0 0 0 0 127 0" result="hardAlpha"/>
<feOffset dy="7"/>
<feComposite in2="hardAlpha" operator="out"/>
<feColorMatrix type="matrix" values="0 0 0 0 0 0 0 0 0 0 0 0 0 0 0 0 0 0 1 0"/>
<feBlend mode="normal" in2="BackgroundImageFix" result="effect1_dropShadow_1282_408"/>
<feBlend mode="normal" in="SourceGraphic" in2="effect1_dropShadow_1282_408" result="shape"/>
</filter>
</defs>
</svg>
