<svg width="70" height="70" viewBox="0 0 70 70" fill="none" xmlns="http://www.w3.org/2000/svg">
<path d="M56.3828 15.354C52.6648 13.6481 48.6779 12.3912 44.5093 11.6713C44.4333 11.6574 44.3575 11.6922 44.3184 11.7616C43.8056 12.6736 43.2377 13.8633 42.8399 14.7985C38.3563 14.1272 33.8957 14.1272 29.504 14.7985C29.1062 13.8425 28.5176 12.6736 28.0026 11.7616C27.9635 11.6945 27.8876 11.6597 27.8117 11.6713C23.6454 12.3889 19.6584 13.6458 15.9382 15.354C15.906 15.3679 15.8784 15.3911 15.86 15.4212C8.29762 26.7193 6.22595 37.7397 7.24224 48.6234C7.24684 48.6767 7.27673 48.7276 7.31812 48.76C12.3076 52.4241 17.1407 54.6486 21.8841 56.123C21.9601 56.1462 22.0405 56.1184 22.0888 56.0559C23.2109 54.5236 24.2111 52.908 25.0687 51.2089C25.1193 51.1094 25.071 50.9914 24.9675 50.952C23.381 50.3502 21.8703 49.6164 20.4172 48.7831C20.3022 48.716 20.293 48.5516 20.3988 48.4729C20.7046 48.2438 21.0105 48.0053 21.3025 47.7646C21.3553 47.7207 21.4289 47.7114 21.491 47.7391C31.0376 52.0978 41.373 52.0978 50.807 47.7391C50.8691 47.7091 50.9427 47.7184 50.9978 47.7623C51.2899 48.003 51.5957 48.2438 51.9038 48.4729C52.0095 48.5516 52.0026 48.716 51.8877 48.7831C50.4345 49.6326 48.9239 50.3502 47.3351 50.9497C47.2316 50.9891 47.1856 51.1094 47.2362 51.2089C48.1122 52.9056 49.1124 54.5213 50.2138 56.0536C50.2598 56.1184 50.3425 56.1462 50.4184 56.123C55.1848 54.6486 60.018 52.4241 65.0074 48.76C65.0511 48.7276 65.0787 48.679 65.0833 48.6257C66.2996 36.0429 63.0461 25.1129 56.4586 15.4235C56.4425 15.3911 56.415 15.3679 56.3828 15.354ZM26.4943 41.9963C23.6201 41.9963 21.2518 39.3576 21.2518 36.117C21.2518 32.8764 23.5742 30.2377 26.4943 30.2377C29.4373 30.2377 31.7827 32.8996 31.7366 36.117C31.7366 39.3576 29.4143 41.9963 26.4943 41.9963ZM45.8773 41.9963C43.0032 41.9963 40.6349 39.3576 40.6349 36.117C40.6349 32.8764 42.9572 30.2377 45.8773 30.2377C48.8204 30.2377 51.1657 32.8996 51.1197 36.117C51.1197 39.3576 48.8204 41.9963 45.8773 41.9963Z" fill="white"/>
</svg>
